<?xml version="1.0" standalone="no"?><!DOCTYPE svg PUBLIC "-//W3C//DTD SVG 1.1//EN" "http://www.w3.org/Graphics/SVG/1.1/DTD/svg11.dtd"><svg t="1780150964189" class="icon" viewBox="0 0 1024 1024" version="1.1" xmlns="http://www.w3.org/2000/svg" p-id="5770" xmlns:xlink="http://www.w3.org/1999/xlink" width="200" height="200"><path d="M652.8 842.8032l-7.1424-1.8176a49.1776 49.1776 0 0 1-7.04-2.56 5.5552 5.5552 0 0 0-0.9984-0.2816 20.2496 20.2496 0 0 1-4.9408-1.5872c-2.7392-1.3312-5.12-1.3568-8.0384-2.56a20.48 20.48 0 0 0-5.12-1.5872c-2.56-0.4864-4.8128-2.2528-7.3984-2.56a14.1824 14.1824 0 0 1-4.1472-1.3824 20.48 20.48 0 0 0-5.12-1.5872c-2.56-0.4608-4.8128-2.176-7.3472-2.56-3.1232-0.4608-5.9136-2.3552-9.344-3.0464a21.9648 21.9648 0 0 1-4.9664-1.8432 3.7632 3.7632 0 0 0-0.768-0.2816l-2.9696-0.7168q-6.9376-2.0992-44.7488-14.848c-3.2256-1.1008-6.2464-1.4848-9.6512-2.56q-21.2992-7.424-42.4192-14.3104-2.7392-0.896-4.4288-1.2544c-3.1744-0.7168-5.4272-2.304-8.3456-2.7648s-5.6832-2.56-8.96-3.0464c-2.56-0.4608-4.6848-2.048-7.3984-2.56s-5.5296-2.304-8.6016-2.8672a14.3104 14.3104 0 0 1-3.9168-1.2544c-2.8928-1.4336-5.7856-1.4848-8.832-3.0464a15.0528 15.0528 0 0 0-3.7888-1.2032 23.68 23.68 0 0 1-5.5808-1.9712 6.4768 6.4768 0 0 0-1.6896-0.5632c-3.5072-0.6656-6.1696-2.2272-9.3184-2.9952s-5.4272-2.176-8.704-2.816a20.48 20.48 0 0 1-4.9152-1.8432 6.9376 6.9376 0 0 0-1.3824-0.4864c-5.9904-1.3824-12.8-3.9168-18.6624-5.8624q-14.5152-4.7616-20.48-6.8096a68.4032 68.4032 0 0 1-7.68-2.56 7.4496 7.4496 0 0 0-1.3568-0.512 42.3424 42.3424 0 0 1-7.8592-2.7648 15.36 15.36 0 0 0-4.608-1.408 15.8976 15.8976 0 0 1-7.1936-3.6352 42.752 42.752 0 0 0-1.792-1.6384 7.8592 7.8592 0 0 0-1.3568-0.8192l-3.8656-1.8944-0.2304-0.1536q-5.76-5.4784-11.9808-12.0832a10.9568 10.9568 0 0 1-2.048-3.2 0.5376 0.5376 0 0 1 0-0.512 0.512 0.512 0 0 1 0.4352-0.2304h284.3136a58.7264 58.7264 0 0 0 9.856-0.6912 125.7728 125.7728 0 0 0 18.688-4.0448q5.12-1.7152 5.888-1.8688a21.6064 21.6064 0 0 0 5.8112-1.9712q2.9184-1.4848 9.2928-4.0704a139.6736 139.6736 0 0 0 15.1296-8.32c2.9696-1.664 6.7584-5.3248 10.24-7.68a35.84 35.84 0 0 0 4.096-3.072 100.0192 100.0192 0 0 0 18.2528-20.2752 13.6704 13.6704 0 0 1 1.4336-1.9712 20.3008 20.3008 0 0 0 4.0704-5.6064 17.6384 17.6384 0 0 1 3.2768-4.864 1.4592 1.4592 0 0 0 0.256-0.3584l7.68-15.104a4.2496 4.2496 0 0 0 0.384-1.1776l0.4096-2.3552a6.4 6.4 0 0 1 0.4608-1.5104 69.5808 69.5808 0 0 0 4.2752-12.0064q1.6128-7.3216 2.4064-11.648a108.8 108.8 0 0 0 1.5616-18.944v-216.0128a6.6816 6.6816 0 0 1 1.0496-3.7632 0.7168 0.7168 0 0 1 0.4608-0.3072 0.7168 0.7168 0 0 1 0.5376 0.128 14.8736 14.8736 0 0 0 5.8368 2.7904q2.8416 0.64 4.864 1.28c7.2704 2.3552 14.6944 4.224 21.248 6.5536a14.72 14.72 0 0 0 2.56 0.6912c3.2512 0.5376 5.8624 2.4064 8.576 2.7904s5.504 2.4064 8.4992 2.816 4.8384 2.176 7.68 2.56a21.8112 21.8112 0 0 1 3.84 0.9984q4.7104 1.664 11.7248 3.5072a16.4352 16.4352 0 0 1 2.7648 0.9984 31.744 31.744 0 0 0 7.68 2.9952 19.6608 19.6608 0 0 1 6.9888 3.0976q5.5808 4.0448 6.9632 4.7616a5.8112 5.8112 0 0 1 1.28 0.896 84.9152 84.9152 0 0 1 7.936 7.168 85.8112 85.8112 0 0 1 8.6272 10.8032q1.2288 2.048 3.9168 5.76a14.3616 14.3616 0 0 1 2.048 4.1216 99.84 99.84 0 0 1 4.1216 13.5424c0.384 2.944 1.5104 5.7344 1.7408 9.0624a86.1952 86.1952 0 0 1-0.5376 16.2304 43.52 43.52 0 0 1-1.3568 7.0656 81.1264 81.1264 0 0 1-3.6352 12.416c-1.1776 2.4064-1.0752 4.864-2.3808 7.3216s-1.5104 5.888-2.8672 8.6528a12.3648 12.3648 0 0 0-1.3568 3.968c-0.3328 2.8416-2.2016 5.2992-2.56 8.1664s-2.56 5.632-2.9184 8.5248-2.3552 5.3248-2.7392 8.448-2.56 5.632-2.8672 9.088a2.56 2.56 0 0 1-0.2048 0.8448l-2.0224 4.5568a4.7872 4.7872 0 0 0-0.3584 1.3056 18.5344 18.5344 0 0 1-2.2016 6.4512c-0.7168 1.3056-0.6912 4.0704-1.5872 5.8368a16.9728 16.9728 0 0 0-1.7152 4.864c-0.4352 2.9952-2.56 5.76-2.8928 8.3456-0.3072 3.072-2.2272 5.376-2.7136 8.448a13.2864 13.2864 0 0 1-1.3056 4.0192 21.0944 21.0944 0 0 0-1.8176 5.7088 5.2736 5.2736 0 0 1-0.3072 1.0496l-1.792 4.1472a3.712 3.712 0 0 0-0.256 0.8192 18.4576 18.4576 0 0 1-1.28 4.6336 15.8464 15.8464 0 0 0-1.4336 4.0192q0 0.6912-2.56 8.32a45.4912 45.4912 0 0 1-1.6128 4.5824c-0.8704 1.9456-1.1776 3.84-1.9968 6.1696q-2.56 6.912-4.6848 13.8752-1.7664 5.5552-6.7072 20.0704-3.712 10.9312-7.3728 21.9392-3.9168 11.7504-9.0112 27.52-1.4592 4.5568-2.2016 7.1168-1.5104 5.3248-2.1248 7.1168l-21.9136 65.9968a45.3376 45.3376 0 0 1-3.1744 7.168 3.4816 3.4816 0 0 0-0.384 1.152 36.8128 36.8128 0 0 1-6.2208 12.8 30.72 30.72 0 0 1-3.5584 4.6592 111.2832 111.2832 0 0 1-13.2096 13.3888 6.8352 6.8352 0 0 1-1.3824 0.8704 53.5296 53.5296 0 0 0-8.704 5.5552l-0.4096 0.256-2.0736 1.0496a11.136 11.136 0 0 1-1.8176 0.7168 53.5808 53.5808 0 0 0-8.5248 3.2512 6.272 6.272 0 0 1-1.792 0.5632c-4.1216 0.6144-7.552 1.6128-11.8016 1.8688-2.0736 0-4.1728 0.2048-6.2208 0.2048a69.12 69.12 0 0 1-17.4592-1.9968zM582.2976 655.36l-330.9312-0.64A72.2944 72.2944 0 0 1 179.2 582.3232l0.5888-330.9568A72.2944 72.2944 0 0 1 252.1856 179.2l330.9312 0.5888A72.2944 72.2944 0 0 1 655.36 252.1856l-0.5888 330.9568A72.2944 72.2944 0 0 1 582.4 655.36zM250.88 251.8016v259.5584a0.9216 0.9216 0 0 0 0.9216 0.9216h330.9312a0.9216 0.9216 0 0 0 0.9216-0.9216V251.8016a0.9216 0.9216 0 0 0-0.9216-0.9216H251.8528a0.9216 0.9216 0 0 0-0.9728 0.9216z" fill="#e6e6e6" p-id="5771"></path></svg>